<?xml version="1.0" encoding="utf-8"?>
<!-- Generator: Adobe Illustrator 19.1.0, SVG Export Plug-In . SVG Version: 6.00 Build 0)  -->
<svg version="1.1" id="Layer_1" xmlns="http://www.w3.org/2000/svg" xmlns:xlink="http://www.w3.org/1999/xlink" x="0px" y="0px"
	 viewBox="0 0 350 225" style="enable-background:new 0 0 350 225;" xml:space="preserve">
<style type="text/css">
	.st0{fill:#ffffff;}
	.st1{fill:#EDB20F;}
</style>
<g>
	<g>
		<path class="st0" d="M70.8,69L59.5,52.1v25.3h-8V38.2h7.6L71,56.7l11.8-18.6h7.5v39.3h-8.1V52.1L71.1,69H70.8z"/>
		<path class="st0" d="M119.6,78.1c-10.9,0-18.6-8.6-18.6-20.3c0-11.8,7.6-20.3,18.6-20.3c10.9,0,18.6,8.5,18.6,20.3
			C138.2,69.5,130.5,78.1,119.6,78.1z M119.6,44.8c-6.2,0-10.2,5.3-10.2,13c0,7.7,4,13,10.2,13c6.3,0,10.4-5.3,10.4-13
			C130,50.2,125.9,44.8,119.6,44.8z"/>
		<path class="st0" d="M181.9,77.5h-6.5l-18.6-26.2v26.2H149V38.2h7.7L174.1,63V38.2h7.9V77.5z"/>
		<path class="st0" d="M205.4,77.5h-8.2V38.2h8.2V77.5z"/>
		<path class="st0" d="M238.1,37.5c4.3,0,7.7,1.2,10.2,3.1v8.3c-3-2.6-6.1-3.8-9.9-3.8c-7,0-11.6,5.1-11.6,12.8
			c0,7.7,4.6,12.7,11.6,12.7c3.7,0,6.8-1.2,9.9-3.8v8.3c-2.6,1.9-6,3.1-10.2,3.1c-11.4,0-19.5-8.1-19.5-20.3S226.7,37.5,238.1,37.5z
			"/>
		<path class="st0" d="M281.5,38.2l15,39.3h-8.3l-3.5-9.5h-14.7l-3.5,9.5h-8.2l15-39.3H281.5z M272.5,61.1h9.6L277.3,48L272.5,61.1z
			"/>
		<path class="st1" d="M188.3,109.3c-1.3,0-4.5-0.4-7-1.2c3.3,2,4.7,6.8,4.7,9.4c0,6.5-5.8,17-19.8,17c-11.5,0-17.3-6.5-17.3-15.4
			c0-6.9,5.4-11.2,9.3-12.5c-1-1.5-1.9-4-1.9-6.2c0-5.4,3.6-9.3,9.8-9.3c5.2,0,8,2.2,8,6.6c0,2.1-1.6,4.2-3.5,5l-0.2-0.3
			c0.6-0.5,1-1.5,1-2.7c0-2.3-1.6-4.1-5.2-4.1c-4.4,0-7.3,2.6-7.3,8.3c0,0.8,0.3,1.5,0.4,2.2c0.8-0.5,2-0.8,2.8-0.8
			c2.6,0,3.7,1.2,3.7,3c0,1.3-1.3,2.1-2.6,2.1c-1.9,0-3.3-1.1-4.5-2.8c-1.6,1.2-3.6,3.3-3.6,7.2c0,7.2,3.8,12.6,13.2,12.6
			s15-7.1,15-12.8c0-6.1-4.9-7.4-7.7-7.4c-3.6,0-5.9,2.2-5.9,5c0,2.5,1.9,3.6,2.9,3.7c-0.1-0.8-0.2-1.6-0.1-2.4
			c0.3-2.1,1.7-3.2,3.8-3.2c2.2,0,3.6,1.9,3.6,4c0,2.2-1.9,4.3-5,4.3c-3.8,0-6.4-3.3-6.4-7.4c0-6.3,5.9-9.2,10-9.2
			c1.7,0,3.4,0.2,4.7,0.4c1.7,0.2,4.4,0.6,5.2,0.6c4.2,0,5.8-2.1,5.8-4.8c0-2.5-1.5-4.2-2.7-4.4c-0.2,2.4-1.7,4.8-3.9,4.8
			c-2.2,0-3.6-1.5-3.6-3.6c0-2.2,2.1-3.6,4.3-3.6c3.2,0,8.4,3.1,8.4,8.3C196.8,104.7,193.7,109.3,188.3,109.3z"/>
		<path class="st0" d="M35.1,181l-11.3-16.9v25.3h-8v-39.3h7.6l11.9,18.6l11.8-18.6h7.5v39.3h-8.1v-25.3L35.3,181H35.1z"/>
		<path class="st0" d="M88.8,150.1l15,39.3h-8.3l-3.5-9.5H77.3l-3.5,9.5h-8.2l15-39.3H88.8z M79.9,173h9.6L84.7,160L79.9,173z"/>
		<path class="st0" d="M108.8,150.1h33.5v7.2h-12.7v32.1h-8.3v-32.1h-12.6V150.1z"/>
		<path class="st0" d="M150.8,150.1h33.5v7.2h-12.7v32.1h-8.3v-32.1h-12.6V150.1z"/>
		<path class="st0" d="M231.5,150.1v39.3h-8.2v-16.5h-17.8v16.5h-8.2v-39.3h8.2v15.6h17.8v-15.6H231.5z"/>
		<path class="st0" d="M273.5,150.1v7.2h-18.6v8.6h16.9v7h-16.9v9.3h18.6v7.2h-26.7v-39.3H273.5z"/>
		<path class="st0" d="M312.4,150.1l6.8,26.4l6.5-26.4h8.1l-10.2,39.3H316l-6.9-25.9l-6.9,25.9h-7.5l-10.2-39.3h8.3l6.4,26.4
			l6.9-26.4H312.4z"/>
	</g>
</g>
</svg>
